<svg xmlns="http://www.w3.org/2000/svg" data-default-size="18" viewBox="0 0 24 24" width="24px" height="24px" fill="#e3e3e3">
  <circle cx="12" cy="12" r="4.2"/>
  <rect x="11" y="1" width="2" height="4" rx="1"/>
  <rect x="11" y="1" width="2" height="4" rx="1" transform="rotate(45 12 12)"/>
  <rect x="11" y="1" width="2" height="4" rx="1" transform="rotate(90 12 12)"/>
  <rect x="11" y="1" width="2" height="4" rx="1" transform="rotate(135 12 12)"/>
  <rect x="11" y="1" width="2" height="4" rx="1" transform="rotate(180 12 12)"/>
  <rect x="11" y="1" width="2" height="4" rx="1" transform="rotate(225 12 12)"/>
  <rect x="11" y="1" width="2" height="4" rx="1" transform="rotate(270 12 12)"/>
  <rect x="11" y="1" width="2" height="4" rx="1" transform="rotate(315 12 12)"/>
</svg>
